<svg xmlns="http://www.w3.org/2000/svg" viewBox="0 0 400 400" width="400" height="400">
  <ellipse cx="112" cy="150" rx="82" ry="70" fill="#EC6EA8" transform="rotate(-18 112 150)"/><ellipse cx="288" cy="150" rx="82" ry="70" fill="#EC6EA8" transform="rotate(18 288 150)"/><ellipse cx="126" cy="286" rx="66" ry="58" fill="#B368D9" transform="rotate(16 126 286)"/><ellipse cx="274" cy="286" rx="66" ry="58" fill="#B368D9" transform="rotate(-16 274 286)"/><circle cx="106" cy="146" r="22" fill="#FFE3F0"/><circle cx="294" cy="146" r="22" fill="#FFE3F0"/><circle cx="122" cy="290" r="16" fill="#F2D9FF"/><circle cx="278" cy="290" r="16" fill="#F2D9FF"/><path d="M184 88 q-24 -40 -54 -50 M216 88 q24 -40 54 -50" fill="none" stroke="#5B4B7A" stroke-width="8" stroke-linecap="round"/><circle cx="130" cy="38" r="12" fill="#5B4B7A"/><circle cx="270" cy="38" r="12" fill="#5B4B7A"/><ellipse cx="200" cy="226" rx="21" ry="104" fill="#5B4B7A"/><circle cx="200" cy="122" r="32" fill="#6E5B92"/><ellipse cx="186" cy="118" rx="11" ry="11.66" fill="#fff"/><circle cx="186" cy="121" r="6" fill="#2b2b33"/><circle cx="183.84" cy="115.6" r="2.16" fill="#fff"/><ellipse cx="214" cy="118" rx="11" ry="11.66" fill="#fff"/><circle cx="214" cy="121" r="6" fill="#2b2b33"/><circle cx="211.84" cy="115.6" r="2.16" fill="#fff"/>
</svg>
