<svg xmlns="http://www.w3.org/2000/svg" viewBox="0 0 400 400" width="400" height="400">
  <ellipse cx="200" cy="240" rx="140" ry="106" fill="#7CB342"/><ellipse cx="200" cy="240" rx="112" ry="82" fill="#9CCC65"/><g fill="none" stroke="#4F7A21" stroke-width="8"><circle cx="200" cy="240" r="42"/><path d="M200 198 v-40 M200 282 v40 M158 240 h-46 M242 240 h46 M170 210 l-32 -26 M230 210 l32 -26 M170 270 l-32 26 M230 270 l32 26"/></g><ellipse cx="200" cy="112" rx="58" ry="52" fill="#8BC34A"/><ellipse cx="176" cy="104" rx="16" ry="16.96" fill="#fff"/><circle cx="176" cy="107" r="8" fill="#2b2b33"/><circle cx="173.12" cy="100.8" r="2.88" fill="#fff"/><ellipse cx="224" cy="104" rx="16" ry="16.96" fill="#fff"/><circle cx="224" cy="107" r="8" fill="#2b2b33"/><circle cx="221.12" cy="100.8" r="2.88" fill="#fff"/><path d="M182 136 q18 14 36 0" fill="none" stroke="#4F7A21" stroke-width="6" stroke-linecap="round"/>
</svg>
