<svg xmlns="http://www.w3.org/2000/svg" viewBox="0 0 400 400" width="400" height="400">
  <path d="M150 96 v-40 M250 96 v-40" stroke="#C68C1F" stroke-width="13" stroke-linecap="round"/><circle cx="150" cy="52" r="15" fill="#8B5E1A"/><circle cx="250" cy="52" r="15" fill="#8B5E1A"/><ellipse cx="88" cy="176" rx="34" ry="46" fill="#E0AE22"/><ellipse cx="312" cy="176" rx="34" ry="46" fill="#E0AE22"/><ellipse cx="200" cy="190" rx="104" ry="112" fill="#F2C230"/><g fill="#C68C1F"><ellipse cx="146" cy="126" rx="20" ry="16"/><ellipse cx="256" cy="122" rx="17" ry="14"/><ellipse cx="112" cy="212" rx="15" ry="18"/><ellipse cx="292" cy="216" rx="16" ry="14"/></g><ellipse cx="150" cy="186" rx="26" ry="27.560000000000002" fill="#fff"/><circle cx="150" cy="189" r="12" fill="#2b2b33"/><circle cx="145.68" cy="181.2" r="4.32" fill="#fff"/><ellipse cx="250" cy="186" rx="26" ry="27.560000000000002" fill="#fff"/><circle cx="250" cy="189" r="12" fill="#2b2b33"/><circle cx="245.68" cy="181.2" r="4.32" fill="#fff"/><ellipse cx="200" cy="262" rx="60" ry="42" fill="#FFEAA7"/><ellipse cx="200" cy="254" rx="15" ry="11" fill="#8B5E1A"/><path d="M200 265 v14" stroke="#8B5E1A" stroke-width="6" stroke-linecap="round"/><path d="M200 279 q-16 12 -28 -2 M200 279 q16 12 28 -2" fill="none" stroke="#8B5E1A" stroke-width="6" stroke-linecap="round"/>
</svg>
