<svg xmlns="http://www.w3.org/2000/svg" viewBox="0 0 900 600" width="900" height="600">

  <style>
    .anim{transform-box:fill-box;transform-origin:center}
    .bat    {animation:bat 1.6s ease-in-out infinite;animation-delay:var(--d,0s)}
    .respire{animation:respire 3.4s ease-in-out infinite;animation-delay:var(--d,0s)}
    .flotte {animation:flotte 4.2s ease-in-out infinite;animation-delay:var(--d,0s)}
    .derive {animation:derive 16s linear infinite;animation-delay:var(--d,0s)}
    .aileG  {animation:aileG 0.5s ease-in-out infinite;animation-delay:var(--d,0s);
             transform-box:fill-box;transform-origin:right center}
    .aileD  {animation:aileD 0.5s ease-in-out infinite;animation-delay:var(--d,0s);
             transform-box:fill-box;transform-origin:left center}
    .queue  {animation:queue 1.3s ease-in-out infinite;animation-delay:var(--d,0s);
             transform-box:fill-box;transform-origin:left bottom}
    .dodeline{animation:dodeline 2.8s ease-in-out infinite;animation-delay:var(--d,0s);
             transform-box:fill-box;transform-origin:center bottom}
    .brille {animation:brille 2.6s ease-in-out infinite;animation-delay:var(--d,0s)}
    /* Un cœur ne fait pas que battre : il paraît, il grossit, il s'efface,
       et un autre prend sa place. */
    .vitcoeur{animation:vitcoeur 6s ease-in-out infinite;animation-delay:var(--d,0s)}
    /* Un nuage TRAVERSE son monde et revient par l'autre bord. Le disque
       découpe l'image : il disparaît donc tout seul en sortant. */
    .traverse{animation:traverse var(--t,22s) linear infinite;animation-delay:var(--d,0s)}
    @keyframes vitcoeur{
      0%   {opacity:0;transform:scale(.35)}
      12%  {opacity:1;transform:scale(1.12)}
      20%  {transform:scale(.96)}
      30%  {transform:scale(1.08)}
      40%  {transform:scale(.98)}
      52%  {opacity:1;transform:scale(1.14)}
      70%  {opacity:.85;transform:scale(1)}
      88%  {opacity:0;transform:scale(.45)}
      100% {opacity:0;transform:scale(.35)}
    }
    @keyframes traverse{
      0%  {transform:translateX(-330px)}
      100%{transform:translateX(330px)}
    }
    @keyframes bat     {0%,100%{transform:scale(1)}18%{transform:scale(1.16)}30%{transform:scale(1.02)}45%{transform:scale(1.10)}}
    @keyframes respire {0%,100%{transform:scale(1)}50%{transform:scale(1.045)}}
    @keyframes flotte  {0%,100%{transform:translateY(0)}50%{transform:translateY(-7px)}}
    @keyframes derive  {0%{transform:translateX(-26px)}50%{transform:translateX(26px)}100%{transform:translateX(-26px)}}
    @keyframes aileG   {0%,100%{transform:scaleX(1)}50%{transform:scaleX(.42) }}
    @keyframes aileD   {0%,100%{transform:scaleX(1)}50%{transform:scaleX(.42) }}
    @keyframes queue   {0%,100%{transform:rotate(-13deg)}50%{transform:rotate(15deg)}}
    @keyframes dodeline{0%,100%{transform:rotate(-3.5deg)}50%{transform:rotate(3.5deg)}}
    @keyframes brille  {0%,100%{opacity:.35;transform:scale(.85)}50%{opacity:1;transform:scale(1.12)}}
  </style>
  <g transform="translate(16 4) scale(0.72)" opacity=".85"><g class="anim traverse" opacity="0.95" style="--d:0s;--t:24s"><rect x="146" y="133.8" width="108" height="32.4" rx="16.2" fill="#ffffff"/><circle cx="181.64" cy="132.72" r="27" fill="#ffffff"/><circle cx="217.28" cy="140.28" r="19.439999999999998" fill="#ffffff"/></g><g class="anim traverse" opacity="0.9" style="--d:-7s;--t:19s"><rect x="156" y="194.8" width="88" height="26.4" rx="13.2" fill="#ffffff"/><circle cx="185.04" cy="193.92" r="22" fill="#ffffff"/><circle cx="214.08" cy="200.08" r="15.84" fill="#ffffff"/></g><g class="anim traverse" opacity="0.85" style="--d:-14s;--t:28s"><rect x="138" y="243.4" width="124" height="37.199999999999996" rx="18.599999999999998" fill="#ffffff"/><circle cx="178.92" cy="242.16" r="31" fill="#ffffff"/><circle cx="219.84" cy="250.84" r="22.32" fill="#ffffff"/></g><g class="anim traverse" opacity="0.8" style="--d:-4s;--t:16s"><rect x="170" y="113" width="60" height="18" rx="9" fill="#ffffff"/><circle cx="189.8" cy="112.4" r="15" fill="#ffffff"/><circle cx="209.6" cy="116.6" r="10.799999999999999" fill="#ffffff"/></g><g class="anim traverse" opacity="0.75" style="--d:-18s;--t:21s"><rect x="164" y="299.2" width="72" height="21.599999999999998" rx="10.799999999999999" fill="#ffffff"/><circle cx="187.76" cy="298.48" r="18" fill="#ffffff"/><circle cx="211.52" cy="303.52" r="12.959999999999999" fill="#ffffff"/></g></g>
  <g transform="translate(524 -3) scale(0.58)" opacity=".7"><g class="anim traverse" opacity="0.95" style="--d:0s;--t:24s"><rect x="146" y="133.8" width="108" height="32.4" rx="16.2" fill="#ffffff"/><circle cx="181.64" cy="132.72" r="27" fill="#ffffff"/><circle cx="217.28" cy="140.28" r="19.439999999999998" fill="#ffffff"/></g><g class="anim traverse" opacity="0.9" style="--d:-7s;--t:19s"><rect x="156" y="194.8" width="88" height="26.4" rx="13.2" fill="#ffffff"/><circle cx="185.04" cy="193.92" r="22" fill="#ffffff"/><circle cx="214.08" cy="200.08" r="15.84" fill="#ffffff"/></g><g class="anim traverse" opacity="0.85" style="--d:-14s;--t:28s"><rect x="138" y="243.4" width="124" height="37.199999999999996" rx="18.599999999999998" fill="#ffffff"/><circle cx="178.92" cy="242.16" r="31" fill="#ffffff"/><circle cx="219.84" cy="250.84" r="22.32" fill="#ffffff"/></g><g class="anim traverse" opacity="0.8" style="--d:-4s;--t:16s"><rect x="170" y="113" width="60" height="18" rx="9" fill="#ffffff"/><circle cx="189.8" cy="112.4" r="15" fill="#ffffff"/><circle cx="209.6" cy="116.6" r="10.799999999999999" fill="#ffffff"/></g><g class="anim traverse" opacity="0.75" style="--d:-18s;--t:21s"><rect x="164" y="299.2" width="72" height="21.599999999999998" rx="10.799999999999999" fill="#ffffff"/><circle cx="187.76" cy="298.48" r="18" fill="#ffffff"/><circle cx="211.52" cy="303.52" r="12.959999999999999" fill="#ffffff"/></g></g>
  <g transform="translate(204 218) scale(0.88)" opacity=".75"><g class="anim traverse" opacity="0.95" style="--d:0s;--t:24s"><rect x="146" y="133.8" width="108" height="32.4" rx="16.2" fill="#ffffff"/><circle cx="181.64" cy="132.72" r="27" fill="#ffffff"/><circle cx="217.28" cy="140.28" r="19.439999999999998" fill="#ffffff"/></g><g class="anim traverse" opacity="0.9" style="--d:-7s;--t:19s"><rect x="156" y="194.8" width="88" height="26.4" rx="13.2" fill="#ffffff"/><circle cx="185.04" cy="193.92" r="22" fill="#ffffff"/><circle cx="214.08" cy="200.08" r="15.84" fill="#ffffff"/></g><g class="anim traverse" opacity="0.85" style="--d:-14s;--t:28s"><rect x="138" y="243.4" width="124" height="37.199999999999996" rx="18.599999999999998" fill="#ffffff"/><circle cx="178.92" cy="242.16" r="31" fill="#ffffff"/><circle cx="219.84" cy="250.84" r="22.32" fill="#ffffff"/></g><g class="anim traverse" opacity="0.8" style="--d:-4s;--t:16s"><rect x="170" y="113" width="60" height="18" rx="9" fill="#ffffff"/><circle cx="189.8" cy="112.4" r="15" fill="#ffffff"/><circle cx="209.6" cy="116.6" r="10.799999999999999" fill="#ffffff"/></g><g class="anim traverse" opacity="0.75" style="--d:-18s;--t:21s"><rect x="164" y="299.2" width="72" height="21.599999999999998" rx="10.799999999999999" fill="#ffffff"/><circle cx="187.76" cy="298.48" r="18" fill="#ffffff"/><circle cx="211.52" cy="303.52" r="12.959999999999999" fill="#ffffff"/></g></g>
  <g transform="translate(686 320) scale(0.52)" opacity=".6"><g class="anim traverse" opacity="0.95" style="--d:0s;--t:24s"><rect x="146" y="133.8" width="108" height="32.4" rx="16.2" fill="#ffffff"/><circle cx="181.64" cy="132.72" r="27" fill="#ffffff"/><circle cx="217.28" cy="140.28" r="19.439999999999998" fill="#ffffff"/></g><g class="anim traverse" opacity="0.9" style="--d:-7s;--t:19s"><rect x="156" y="194.8" width="88" height="26.4" rx="13.2" fill="#ffffff"/><circle cx="185.04" cy="193.92" r="22" fill="#ffffff"/><circle cx="214.08" cy="200.08" r="15.84" fill="#ffffff"/></g><g class="anim traverse" opacity="0.85" style="--d:-14s;--t:28s"><rect x="138" y="243.4" width="124" height="37.199999999999996" rx="18.599999999999998" fill="#ffffff"/><circle cx="178.92" cy="242.16" r="31" fill="#ffffff"/><circle cx="219.84" cy="250.84" r="22.32" fill="#ffffff"/></g><g class="anim traverse" opacity="0.8" style="--d:-4s;--t:16s"><rect x="170" y="113" width="60" height="18" rx="9" fill="#ffffff"/><circle cx="189.8" cy="112.4" r="15" fill="#ffffff"/><circle cx="209.6" cy="116.6" r="10.799999999999999" fill="#ffffff"/></g><g class="anim traverse" opacity="0.75" style="--d:-18s;--t:21s"><rect x="164" y="299.2" width="72" height="21.599999999999998" rx="10.799999999999999" fill="#ffffff"/><circle cx="187.76" cy="298.48" r="18" fill="#ffffff"/><circle cx="211.52" cy="303.52" r="12.959999999999999" fill="#ffffff"/></g></g>
</svg>
